<?xml version="1.0" standalone="no"?>
<!DOCTYPE svg PUBLIC "-//W3C//DTD SVG 20010904//EN"
 "http://www.w3.org/TR/2001/REC-SVG-20010904/DTD/svg10.dtd">
<svg version="1.0" xmlns="http://www.w3.org/2000/svg"
 width="811.000000pt" height="811.000000pt" viewBox="0 0 811.000000 811.000000"
 preserveAspectRatio="xMidYMid meet">
<metadata>
Created by potrace 1.14, written by Peter Selinger 2001-2017
</metadata>
<g transform="translate(0.000000,811.000000) scale(0.100000,-0.100000)"
fill="#000000" stroke="none">
<path d="M4435 8000 c-3 -11 -4 -24 -1 -29 5 -8 74 -27 166 -46 8 -2 44 -13
80 -25 257 -86 401 -282 394 -535 -4 -136 -73 -370 -140 -477 -13 -21 -24 -41
-24 -45 -1 -12 -120 -176 -172 -235 -51 -59 -103 -112 -442 -462 -127 -131
-264 -273 -305 -315 -40 -42 -175 -181 -300 -310 -124 -128 -269 -277 -321
-331 -97 -101 -458 -473 -633 -654 -54 -56 -105 -113 -112 -128 -14 -25 -12
-29 19 -75 36 -52 207 -287 437 -599 139 -190 443 -605 573 -783 34 -46 102
-138 151 -205 50 -67 135 -182 189 -256 487 -658 985 -1092 1526 -1330 125
-55 340 -124 450 -143 112 -21 149 -26 225 -33 89 -9 289 -8 380 0 434 41 856
213 1283 523 69 50 102 81 102 94 0 24 -13 24 -126 -1 -213 -47 -432 -8 -664
117 -110 59 -181 108 -310 212 -137 111 -167 138 -340 311 -251 249 -390 414
-749 880 -133 173 -248 322 -254 330 -7 8 -71 92 -142 185 -71 94 -168 220
-215 280 -47 61 -92 120 -100 132 -8 11 -109 144 -225 295 -314 410 -560 732
-676 884 -95 125 -91 117 -79 150 6 15 145 162 309 328 165 166 388 391 496
501 364 369 865 873 949 952 324 306 590 506 833 628 101 50 245 108 296 120
12 2 62 14 110 25 81 19 122 27 138 29 4 1 10 8 13 17 18 46 68 44 -1400 44
-1366 0 -1383 -1 -1389 -20z"/>
<path d="M173 7976 c-14 -28 -14 -30 8 -47 13 -10 44 -23 69 -29 131 -33 290
-98 366 -150 25 -16 49 -30 53 -30 5 0 44 -35 88 -78 118 -118 171 -227 198
-407 4 -22 6 -229 5 -460 -1 -231 -2 -1270 -3 -2310 l-2 -1890 -29 -78 c-42
-116 -108 -207 -208 -289 -110 -90 -244 -155 -439 -213 -47 -14 -94 -34 -104
-45 -16 -18 -17 -21 -1 -45 l16 -25 1583 3 1582 2 0 24 c0 22 -10 26 -120 56
-223 61 -374 143 -501 270 -107 107 -158 207 -188 370 -4 17 -6 1067 -7 2335
-1 1658 2 2323 10 2370 51 291 301 512 698 615 52 14 99 27 104 31 13 8 11 32
-3 41 -7 4 -721 8 -1587 8 l-1573 0 -15 -29z"/>
</g>
</svg>
